<svg xmlns="http://www.w3.org/2000/svg" xmlns:xlink="http://www.w3.org/1999/xlink" width="375" viewBox="0 0 375 375" height="375" version="1.0"><defs><clipPath id="b"><path d="M 145 84.441406 L 229 84.441406 L 229 109 L 145 109 Z M 145 84.441406"/></clipPath><clipPath id="e"><path d="M 1 0.441406 L 83.71875 0.441406 L 83.71875 24.480469 L 1 24.480469 Z M 1 0.441406"/></clipPath><clipPath id="d"><path d="M0 0H84V25H0z"/></clipPath><clipPath id="f"><path d="M 139.710938 108 L 234.960938 108 L 234.960938 133 L 139.710938 133 Z M 139.710938 108"/></clipPath><clipPath id="i"><path d="M 0.710938 0 L 95.960938 0 L 95.960938 24.238281 L 0.710938 24.238281 Z M 0.710938 0"/></clipPath><clipPath id="h"><path d="M0 0H96V25H0z"/></clipPath><clipPath id="j"><path d="M 139.710938 131 L 234.960938 131 L 234.960938 157 L 139.710938 157 Z M 139.710938 131"/></clipPath><clipPath id="m"><path d="M 0.710938 1 L 95.960938 1 L 95.960938 25 L 0.710938 25 Z M 0.710938 1"/></clipPath><clipPath id="l"><path d="M0 0H96V26H0z"/></clipPath><clipPath id="n"><path d="M 145 155 L 229 155 L 229 179.691406 L 145 179.691406 Z M 145 155"/></clipPath><clipPath id="q"><path d="M 1 0.761719 L 83.71875 0.761719 L 83.71875 24.691406 L 1 24.691406 Z M 1 0.761719"/></clipPath><clipPath id="p"><path d="M0 0H84V25H0z"/></clipPath><clipPath id="r"><path d="M 143 95 L 218 95 L 218 211 L 143 211 Z M 143 95"/></clipPath><clipPath id="s"><path d="M 127.808594 122.988281 L 208.964844 89.609375 L 247.476562 183.25 L 166.320312 216.628906 Z M 127.808594 122.988281"/></clipPath><clipPath id="t"><path d="M 208.617188 89.753906 L 127.460938 123.128906 L 165.972656 216.769531 L 247.128906 183.394531 Z M 208.617188 89.753906"/></clipPath><mask id="c"><g filter="url(#a)"><path fill-opacity=".2" d="M-37.5 -37.5H412.5V412.5H-37.5z"/></g></mask><mask id="g"><g filter="url(#a)"><path fill-opacity=".4" d="M-37.5 -37.5H412.5V412.5H-37.5z"/></g></mask><mask id="k"><g filter="url(#a)"><path fill-opacity=".498" d="M-37.5 -37.5H412.5V412.5H-37.5z"/></g></mask><mask id="o"><g filter="url(#a)"><path fill-opacity=".6" d="M-37.5 -37.5H412.5V412.5H-37.5z"/></g></mask><filter x="0%" y="0%" width="100%" xmlns:xlink="http://www.w3.org/1999/xlink" xlink:type="simple" xlink:actuate="onLoad" height="100%" id="a" xlink:show="other"><feColorMatrix values="0 0 0 0 1 0 0 0 0 1 0 0 0 0 1 0 0 0 1 0" color-interpolation-filters="sRGB"/></filter></defs><path fill="#FFF" d="M-37.5 -37.5H412.5V412.5H-37.5z"/><path fill="#FFF" d="M-37.5 -37.5H412.5V412.5H-37.5z"/><path fill="#C2CDAA" d="M-37.5 -37.5H412.5V412.5H-37.5z"/><g fill="#3E5650"><g><g><path d="M 33.726562 -20.335938 C 33.523438 -20.089844 33.316406 -19.84375 33.113281 -19.597656 C 31.097656 -16.925781 28.839844 -14.253906 26.414062 -11.585938 C 23.992188 -8.914062 21.238281 -6.695312 18.15625 -4.929688 C 13.886719 -2.710938 10.351562 -2.09375 7.601562 -3.039062 C 4.804688 -3.984375 3.164062 -6.039062 2.671875 -9.121094 C 2.136719 -12.203125 3.164062 -15.859375 5.710938 -20.007812 C 6.777344 -21.609375 7.886719 -23.003906 9.039062 -24.15625 C 10.1875 -25.304688 11.257812 -26.292969 12.242188 -27.113281 C 13.925781 -28.46875 14.953125 -29.621094 15.363281 -30.648438 C 15.773438 -31.632812 14.996094 -32.78125 13.0625 -34.097656 C 13.023438 -34.097656 13.023438 -34.097656 12.980469 -34.140625 C 12.285156 -34.550781 11.707031 -35 11.257812 -35.535156 C 10.761719 -36.070312 10.640625 -36.726562 10.886719 -37.507812 C 11.09375 -38.289062 11.953125 -39.273438 13.394531 -40.464844 C 14.953125 -41.699219 16.71875 -42.808594 18.734375 -43.835938 C 20.707031 -44.820312 22.59375 -45.640625 24.402344 -46.257812 C 25.964844 -46.792969 27.113281 -46.957031 27.8125 -46.710938 C 28.511719 -46.421875 28.714844 -45.476562 28.347656 -43.835938 C 28.101562 -42.808594 27.730469 -41.78125 27.238281 -40.710938 C 26.703125 -39.644531 26.167969 -38.699219 25.636719 -37.917969 C 25.386719 -37.546875 25.347656 -37.261719 25.46875 -37.054688 C 25.59375 -36.808594 25.800781 -36.6875 26.085938 -36.6875 C 26.375 -36.644531 26.621094 -36.808594 26.828125 -37.097656 C 27.523438 -38.042969 28.140625 -39.109375 28.757812 -40.34375 C 29.332031 -41.574219 29.742188 -42.765625 30.03125 -43.917969 C 30.976562 -48.066406 29.042969 -49.339844 24.238281 -47.820312 C 20.089844 -46.464844 16.144531 -44.410156 12.449219 -41.65625 C 9.984375 -39.5625 8.792969 -37.753906 8.914062 -36.316406 C 9.039062 -34.878906 9.984375 -33.644531 11.832031 -32.617188 C 13.105469 -31.878906 13.640625 -31.261719 13.476562 -30.730469 C 13.269531 -30.195312 12.613281 -29.457031 11.460938 -28.550781 C 10.558594 -27.851562 9.488281 -26.867188 8.214844 -25.59375 C 6.941406 -24.320312 5.628906 -22.675781 4.273438 -20.582031 C 1.4375 -15.898438 0.328125 -11.832031 0.984375 -8.339844 C 1.601562 -4.847656 3.53125 -2.546875 6.738281 -1.4375 C 9.902344 -0.328125 13.886719 -1.066406 18.652344 -3.574219 C 21.980469 -5.503906 24.9375 -7.886719 27.441406 -10.722656 C 29.949219 -13.515625 32.207031 -16.308594 34.222656 -19.0625 C 34.386719 -19.265625 34.550781 -19.472656 34.671875 -19.679688 C 34.878906 -19.964844 34.960938 -20.210938 34.878906 -20.417969 C 34.753906 -20.621094 34.589844 -20.707031 34.386719 -20.707031 C 34.140625 -20.707031 33.933594 -20.582031 33.726562 -20.335938 Z M 33.726562 -20.335938" transform="translate(51.668 256.75)"/></g></g></g><g fill="#3E5650"><g><g><path d="M 3.613281 -11.832031 C 2.300781 -10.679688 1.191406 -10.023438 0.289062 -9.859375 C -0.617188 -9.695312 -1.066406 -9.777344 -1.109375 -10.148438 C -1.066406 -10.558594 -0.78125 -11.011719 -0.246094 -11.503906 C 0.289062 -11.996094 0.863281 -12.488281 1.519531 -12.941406 C 2.136719 -13.394531 2.671875 -13.761719 3.121094 -14.007812 C 3.367188 -13.722656 3.574219 -13.351562 3.78125 -12.941406 C 3.984375 -12.53125 3.902344 -12.160156 3.613281 -11.832031 Z M 14.707031 -20.789062 C 10.640625 -19.390625 7.023438 -17.828125 3.820312 -16.0625 C 3.53125 -16.351562 3.285156 -16.636719 3 -16.925781 C 2.464844 -17.417969 2.09375 -17.871094 1.808594 -18.238281 C 1.519531 -18.691406 1.398438 -19.101562 1.480469 -19.429688 C 1.5625 -19.761719 1.726562 -20.046875 1.929688 -20.253906 C 2.382812 -20.746094 3 -21.15625 3.78125 -21.484375 C 4.519531 -21.8125 5.175781 -21.980469 5.75 -21.980469 C 6.285156 -21.980469 6.53125 -21.730469 6.449219 -21.238281 C 6.367188 -20.871094 6.449219 -20.664062 6.695312 -20.539062 C 6.902344 -20.417969 7.1875 -20.417969 7.476562 -20.539062 C 7.765625 -20.664062 7.96875 -20.871094 8.09375 -21.238281 C 8.378906 -22.429688 8.050781 -23.171875 7.1875 -23.457031 C 6.328125 -23.746094 5.257812 -23.664062 3.984375 -23.210938 C 2.710938 -22.757812 1.601562 -22.0625 0.699219 -21.074219 C -0.410156 -19.71875 -0.574219 -18.363281 0.289062 -17.089844 C 0.65625 -16.636719 1.066406 -16.144531 1.601562 -15.609375 C 1.808594 -15.445312 1.972656 -15.28125 2.136719 -15.117188 C 1.066406 -14.5 0 -13.722656 -1.027344 -12.777344 C -2.09375 -11.832031 -2.710938 -10.84375 -2.835938 -9.820312 C -2.835938 -8.628906 -2.09375 -8.09375 -0.574219 -8.132812 C 0.902344 -8.175781 2.628906 -9.039062 4.601562 -10.761719 C 5.300781 -11.460938 5.628906 -12.160156 5.585938 -12.898438 C 5.546875 -13.597656 5.257812 -14.296875 4.804688 -14.914062 C 7.804688 -16.515625 11.175781 -17.953125 14.832031 -19.226562 C 15.199219 -19.347656 15.445312 -19.597656 15.570312 -19.882812 C 15.652344 -20.171875 15.609375 -20.457031 15.488281 -20.664062 C 15.324219 -20.871094 15.078125 -20.910156 14.707031 -20.789062 Z M 14.707031 -20.789062" transform="translate(85.27 256.75)"/></g></g></g><g fill="#3E5650"><g><g><path d="M 24.113281 -20.210938 C 23.992188 -20.089844 23.828125 -20.007812 23.664062 -19.882812 C 22.71875 -19.144531 21.691406 -18.40625 20.539062 -17.707031 C 19.347656 -16.964844 18.324219 -16.597656 17.378906 -16.597656 C 16.761719 -16.597656 16.390625 -16.761719 16.226562 -17.132812 C 16.0625 -17.460938 15.980469 -18.035156 15.980469 -18.816406 C 15.941406 -19.265625 15.898438 -19.71875 15.859375 -20.171875 C 15.773438 -20.621094 15.609375 -20.992188 15.324219 -21.320312 C 15.035156 -21.609375 14.582031 -21.773438 13.96875 -21.773438 C 13.308594 -21.773438 12.695312 -21.566406 12.117188 -21.15625 C 11.503906 -20.707031 10.96875 -20.210938 10.476562 -19.597656 C 9.941406 -18.980469 9.488281 -18.40625 9.039062 -17.789062 C 8.875 -17.582031 8.710938 -17.335938 8.503906 -17.089844 C 8.546875 -17.296875 8.585938 -17.5 8.628906 -17.707031 C 8.75 -18.199219 8.875 -18.773438 8.914062 -19.390625 C 8.957031 -20.007812 8.875 -20.582031 8.628906 -21.074219 C 8.339844 -21.527344 7.765625 -21.773438 6.902344 -21.773438 C 5.914062 -21.773438 4.972656 -21.402344 4.109375 -20.707031 C 3.203125 -19.964844 2.300781 -19.101562 1.4375 -18.15625 L 0.863281 -17.582031 C 1.066406 -18.363281 1.273438 -19.101562 1.480469 -19.84375 C 1.601562 -20.253906 1.726562 -20.621094 1.808594 -20.953125 C 1.890625 -21.320312 1.808594 -21.566406 1.601562 -21.691406 C 1.355469 -21.8125 1.066406 -21.8125 0.78125 -21.691406 C 0.492188 -21.566406 0.289062 -21.320312 0.164062 -20.953125 C -0.0429688 -20.253906 -0.207031 -19.636719 -0.371094 -19.0625 C -0.820312 -17.542969 -1.066406 -16.390625 -1.109375 -15.691406 C -1.066406 -15.242188 -0.863281 -14.996094 -0.410156 -14.953125 C 0 -14.914062 0.410156 -15.078125 0.78125 -15.445312 C 1.066406 -15.734375 1.355469 -16.0625 1.644531 -16.351562 C 2.589844 -17.417969 3.492188 -18.324219 4.3125 -19.0625 C 5.09375 -19.761719 5.832031 -20.128906 6.449219 -20.128906 C 6.902344 -20.128906 7.148438 -19.964844 7.230469 -19.597656 C 7.269531 -19.226562 7.1875 -18.570312 6.984375 -17.625 C 6.859375 -17.214844 6.820312 -16.800781 6.777344 -16.390625 C 6.738281 -15.980469 6.777344 -15.652344 6.902344 -15.363281 C 7.023438 -15.078125 7.355469 -14.953125 7.847656 -14.953125 C 8.296875 -14.953125 8.710938 -15.160156 9.078125 -15.527344 C 9.449219 -15.898438 9.902344 -16.433594 10.351562 -17.089844 C 10.804688 -17.746094 11.339844 -18.40625 11.953125 -19.101562 C 12.53125 -19.800781 13.0625 -20.128906 13.515625 -20.128906 C 13.804688 -20.128906 14.007812 -20.007812 14.089844 -19.761719 C 14.171875 -19.472656 14.214844 -19.019531 14.253906 -18.363281 C 14.253906 -17.871094 14.296875 -17.378906 14.417969 -16.84375 C 14.5 -16.308594 14.75 -15.898438 15.117188 -15.527344 C 15.488281 -15.160156 16.0625 -14.953125 16.925781 -14.953125 C 18.199219 -14.953125 19.472656 -15.363281 20.828125 -16.1875 C 22.144531 -16.964844 23.375 -17.828125 24.527344 -18.691406 C 24.648438 -18.816406 24.773438 -18.898438 24.894531 -18.980469 C 25.222656 -19.265625 25.386719 -19.515625 25.386719 -19.800781 C 25.347656 -20.089844 25.222656 -20.253906 25.019531 -20.375 C 24.773438 -20.5 24.484375 -20.417969 24.113281 -20.210938 Z M 24.113281 -20.210938" transform="translate(99.648 256.75)"/></g></g></g><g fill="#3E5650"><g><g><path d="M 14.132812 -20.292969 C 11.257812 -17.707031 8.957031 -16.472656 7.230469 -16.636719 C 6.246094 -16.761719 5.75 -17.253906 5.75 -18.074219 C 5.710938 -18.855469 5.875 -19.800781 6.203125 -20.828125 L 6.285156 -21.074219 C 6.328125 -21.445312 6.285156 -21.691406 6.078125 -21.8125 C 5.875 -21.9375 5.628906 -21.9375 5.339844 -21.855469 C 5.054688 -21.773438 4.847656 -21.566406 4.683594 -21.238281 C 3.984375 -19.964844 3.367188 -18.980469 2.875 -18.324219 C 2.382812 -17.625 2.011719 -17.171875 1.726562 -16.964844 C 1.4375 -16.71875 1.234375 -16.597656 1.148438 -16.597656 C 1.109375 -16.597656 1.027344 -16.597656 0.984375 -16.636719 C 0.902344 -16.636719 0.820312 -16.679688 0.78125 -16.761719 C 0.738281 -16.84375 0.699219 -16.964844 0.699219 -17.171875 C 0.699219 -17.582031 0.820312 -18.035156 1.066406 -18.570312 C 1.273438 -19.0625 1.519531 -19.472656 1.808594 -19.800781 C 2.09375 -20.128906 2.300781 -20.210938 2.507812 -20.046875 C 2.710938 -19.84375 3 -19.800781 3.285156 -19.925781 C 3.574219 -20.046875 3.820312 -20.253906 3.984375 -20.539062 C 4.109375 -20.828125 4.109375 -21.074219 3.902344 -21.320312 C 3.285156 -21.9375 2.589844 -22.019531 1.808594 -21.609375 C 1.027344 -21.199219 0.371094 -20.539062 -0.164062 -19.597656 C -0.738281 -18.652344 -1.027344 -17.664062 -1.027344 -16.679688 C -0.945312 -15.527344 -0.371094 -14.953125 0.699219 -14.953125 C 1.726562 -14.953125 2.835938 -15.773438 4.027344 -17.378906 C 4.148438 -16.515625 4.476562 -15.898438 5.011719 -15.527344 C 5.546875 -15.160156 6.246094 -14.953125 7.148438 -14.953125 C 9.324219 -14.953125 11.996094 -16.390625 15.117188 -19.226562 C 15.40625 -19.515625 15.527344 -19.800781 15.488281 -20.089844 C 15.40625 -20.335938 15.242188 -20.5 14.996094 -20.582031 C 14.707031 -20.664062 14.417969 -20.582031 14.132812 -20.292969 Z M 14.132812 -20.292969" transform="translate(123.72 256.75)"/></g></g></g><g fill="#3E5650"><g><g><path d="M 11.296875 -20.375 C 9.53125 -18.9375 8.09375 -17.953125 7.066406 -17.417969 C 6.039062 -16.882812 5.011719 -16.597656 4.066406 -16.597656 C 2.753906 -16.597656 1.972656 -17.214844 1.765625 -18.445312 C 1.5625 -19.636719 1.683594 -21.402344 2.21875 -23.664062 C 2.710938 -25.921875 3.410156 -28.675781 4.273438 -31.839844 C 4.601562 -33.03125 4.929688 -34.261719 5.300781 -35.578125 C 5.421875 -36.109375 5.585938 -36.644531 5.75 -37.179688 L 6.164062 -38.738281 C 6.246094 -39.109375 6.164062 -39.398438 5.957031 -39.519531 C 5.710938 -39.644531 5.421875 -39.644531 5.136719 -39.519531 C 4.847656 -39.398438 4.640625 -39.109375 4.519531 -38.738281 L 4.066406 -37.179688 C 3.945312 -36.644531 3.78125 -36.109375 3.65625 -35.578125 C 3.328125 -34.34375 3 -33.152344 2.671875 -32.042969 C 1.644531 -28.304688 0.863281 -25.140625 0.328125 -22.636719 C -0.207031 -20.089844 -0.246094 -18.15625 0.207031 -16.882812 C 0.617188 -15.609375 1.765625 -14.953125 3.613281 -14.953125 C 4.972656 -14.953125 6.328125 -15.324219 7.601562 -16.023438 C 8.875 -16.71875 10.394531 -17.789062 12.160156 -19.226562 C 12.488281 -19.515625 12.652344 -19.761719 12.613281 -20.046875 C 12.570312 -20.335938 12.40625 -20.5 12.160156 -20.621094 C 11.914062 -20.707031 11.625 -20.621094 11.296875 -20.375 Z M 11.296875 -20.375" transform="translate(137.85 256.75)"/></g></g></g><g fill="#3E5650"><g><g><path d="M 29.167969 -35.414062 L 5.875 -35.414062 C 6.574219 -38.082031 7.355469 -40.957031 8.175781 -44.082031 C 8.257812 -44.449219 8.175781 -44.695312 7.96875 -44.820312 C 7.722656 -44.941406 7.4375 -44.941406 7.148438 -44.820312 C 6.859375 -44.695312 6.65625 -44.449219 6.53125 -44.082031 C 5.667969 -40.957031 4.890625 -38.082031 4.191406 -35.414062 L -6.777344 -35.414062 C -7.148438 -35.414062 -7.394531 -35.289062 -7.558594 -35 C -7.765625 -34.714844 -7.847656 -34.46875 -7.804688 -34.179688 C -7.765625 -33.890625 -7.601562 -33.769531 -7.3125 -33.769531 L 3.738281 -33.769531 C 2.957031 -30.769531 2.21875 -28.058594 1.5625 -25.636719 C -1.109375 -16.023438 -2.671875 -9.984375 -3.121094 -7.558594 C -3.328125 -6.449219 -3.367188 -5.546875 -3.246094 -4.847656 C -3.121094 -4.109375 -2.589844 -3.738281 -1.644531 -3.738281 C -1.273438 -3.738281 -0.984375 -3.863281 -0.78125 -4.148438 C -0.574219 -4.4375 -0.535156 -4.722656 -0.574219 -5.011719 C -0.617188 -5.300781 -0.820312 -5.421875 -1.191406 -5.421875 C -1.316406 -5.421875 -1.4375 -5.464844 -1.519531 -5.585938 C -1.601562 -5.710938 -1.644531 -5.914062 -1.644531 -6.246094 C -1.644531 -6.574219 -1.5625 -7.066406 -1.4375 -7.722656 C -0.863281 -10.394531 0.699219 -16.390625 3.203125 -25.636719 L 5.421875 -33.769531 L 28.757812 -33.769531 C 29.125 -33.769531 29.414062 -33.890625 29.621094 -34.179688 C 29.824219 -34.46875 29.867188 -34.714844 29.824219 -35 C 29.785156 -35.289062 29.539062 -35.414062 29.167969 -35.414062 Z M 29.167969 -35.414062" transform="translate(149.024 256.75)"/></g></g></g><g fill="#3E5650"><g><g><path d="M 3.820312 -20.210938 C 3.449219 -20.007812 2.835938 -19.882812 1.972656 -19.84375 C 2.589844 -20.210938 3.203125 -20.335938 3.820312 -20.210938 Z M 12.078125 -20.417969 C 8.339844 -17.664062 5.136719 -16.390625 2.464844 -16.597656 C 1.847656 -16.636719 1.4375 -16.761719 1.148438 -16.964844 C 0.863281 -17.171875 0.699219 -17.378906 0.65625 -17.625 C 0.574219 -17.828125 0.574219 -18.074219 0.617188 -18.28125 C 2.21875 -18.074219 3.492188 -18.28125 4.476562 -18.855469 C 5.421875 -19.429688 5.832031 -20.089844 5.710938 -20.871094 C 5.503906 -21.566406 4.929688 -21.9375 3.984375 -21.9375 C 3.039062 -21.894531 2.054688 -21.609375 1.066406 -20.992188 C 0.0429688 -20.375 -0.617188 -19.472656 -0.984375 -18.363281 C -1.273438 -17.335938 -1.191406 -16.515625 -0.65625 -15.898438 C -0.125 -15.28125 0.863281 -14.953125 2.300781 -14.953125 C 5.546875 -14.953125 9.039062 -16.351562 12.816406 -19.183594 C 13.144531 -19.429688 13.308594 -19.71875 13.308594 -20.007812 C 13.269531 -20.292969 13.144531 -20.5 12.941406 -20.621094 C 12.695312 -20.746094 12.40625 -20.664062 12.078125 -20.417969 Z M 12.078125 -20.417969" transform="translate(154.775 256.75)"/></g></g></g><g fill="#3E5650"><g><g><path d="M 13.476562 -20.582031 C 12.367188 -19.964844 11.257812 -19.515625 10.105469 -19.308594 C 8.914062 -19.0625 8.050781 -18.980469 7.476562 -19.101562 C 7.148438 -19.183594 6.902344 -19.347656 6.777344 -19.636719 C 6.65625 -19.925781 6.53125 -20.210938 6.449219 -20.539062 C 6.367188 -20.992188 6.246094 -21.363281 6.039062 -21.691406 C 5.832031 -22.019531 5.421875 -22.183594 4.804688 -22.183594 C 4.066406 -22.183594 3.410156 -21.894531 2.875 -21.320312 C 2.339844 -20.707031 1.847656 -20.007812 1.4375 -19.226562 C 1.5625 -19.761719 1.726562 -20.335938 1.929688 -21.035156 C 1.972656 -21.402344 1.890625 -21.648438 1.683594 -21.773438 C 1.4375 -21.894531 1.191406 -21.894531 0.902344 -21.773438 C 0.617188 -21.648438 0.371094 -21.402344 0.246094 -21.035156 C -0.371094 -18.855469 -0.699219 -17.253906 -0.738281 -16.308594 C -0.820312 -15.324219 -0.535156 -14.832031 0.164062 -14.832031 C 0.617188 -14.832031 1.027344 -15.035156 1.316406 -15.488281 C 1.601562 -15.898438 1.890625 -16.472656 2.175781 -17.214844 C 2.339844 -17.582031 2.546875 -17.992188 2.835938 -18.527344 C 3.082031 -19.019531 3.328125 -19.472656 3.613281 -19.925781 C 3.902344 -20.335938 4.148438 -20.539062 4.355469 -20.539062 C 4.476562 -20.539062 4.558594 -20.457031 4.601562 -20.335938 C 4.640625 -20.210938 4.722656 -20.007812 4.765625 -19.800781 C 4.890625 -19.347656 5.054688 -18.898438 5.339844 -18.445312 C 5.585938 -17.992188 6.039062 -17.664062 6.695312 -17.5 C 7.476562 -17.335938 8.585938 -17.417969 10.023438 -17.707031 C 11.421875 -17.992188 12.777344 -18.488281 14.089844 -19.226562 C 14.460938 -19.429688 14.625 -19.71875 14.667969 -20.007812 C 14.667969 -20.292969 14.542969 -20.5 14.335938 -20.664062 C 14.132812 -20.789062 13.84375 -20.789062 13.476562 -20.582031 Z M 13.476562 -20.582031" transform="translate(166.811 256.75)"/></g></g></g><g fill="#3E5650"><g><g><path d="M 1.644531 -23.003906 L 1.5625 -23.003906 C 1.355469 -23.046875 1.191406 -23.128906 1.109375 -23.335938 C 0.984375 -23.5 0.984375 -23.703125 1.066406 -23.910156 C 1.109375 -24.074219 1.148438 -24.238281 1.191406 -24.363281 L 1.234375 -24.363281 C 1.316406 -24.691406 1.4375 -25.058594 1.644531 -25.429688 C 1.765625 -25.636719 1.929688 -25.839844 2.136719 -25.964844 C 2.339844 -26.085938 2.546875 -26.128906 2.753906 -26.085938 C 2.957031 -26.046875 3.121094 -25.921875 3.203125 -25.757812 C 3.285156 -25.550781 3.285156 -25.347656 3.164062 -25.140625 L 2.835938 -24.238281 L 2.671875 -23.746094 C 2.589844 -23.539062 2.464844 -23.335938 2.257812 -23.210938 C 2.054688 -23.085938 1.847656 -23.003906 1.644531 -23.003906 Z M 9.695312 -20.292969 C 6.859375 -17.707031 4.558594 -16.472656 2.835938 -16.636719 C 1.972656 -16.761719 1.480469 -17.171875 1.398438 -17.953125 C 1.316406 -18.734375 1.4375 -19.679688 1.808594 -20.828125 C 1.890625 -21.28125 1.808594 -21.566406 1.601562 -21.691406 C 1.398438 -21.8125 1.109375 -21.8125 0.820312 -21.691406 C 0.492188 -21.566406 0.246094 -21.28125 0.125 -20.828125 C -0.207031 -19.71875 -0.371094 -18.691406 -0.371094 -17.828125 C -0.371094 -16.964844 -0.125 -16.269531 0.328125 -15.734375 C 0.78125 -15.199219 1.601562 -14.953125 2.753906 -14.953125 C 4.929688 -14.953125 7.601562 -16.390625 10.679688 -19.226562 C 10.96875 -19.515625 11.09375 -19.800781 11.050781 -20.089844 C 11.011719 -20.335938 10.84375 -20.5 10.597656 -20.582031 C 10.3125 -20.664062 10.023438 -20.582031 9.695312 -20.292969 Z M 9.695312 -20.292969" transform="translate(180.162 256.75)"/></g></g></g><g fill="#3E5650"><g><g><path d="M 14.132812 -20.292969 C 11.257812 -17.707031 8.957031 -16.472656 7.230469 -16.636719 C 6.246094 -16.761719 5.75 -17.253906 5.75 -18.074219 C 5.710938 -18.855469 5.875 -19.800781 6.203125 -20.828125 L 6.285156 -21.074219 C 6.328125 -21.445312 6.285156 -21.691406 6.078125 -21.8125 C 5.875 -21.9375 5.628906 -21.9375 5.339844 -21.855469 C 5.054688 -21.773438 4.847656 -21.566406 4.683594 -21.238281 C 3.984375 -19.964844 3.367188 -18.980469 2.875 -18.324219 C 2.382812 -17.625 2.011719 -17.171875 1.726562 -16.964844 C 1.4375 -16.71875 1.234375 -16.597656 1.148438 -16.597656 C 1.109375 -16.597656 1.027344 -16.597656 0.984375 -16.636719 C 0.902344 -16.636719 0.820312 -16.679688 0.78125 -16.761719 C 0.738281 -16.84375 0.699219 -16.964844 0.699219 -17.171875 C 0.699219 -17.582031 0.820312 -18.035156 1.066406 -18.570312 C 1.273438 -19.0625 1.519531 -19.472656 1.808594 -19.800781 C 2.09375 -20.128906 2.300781 -20.210938 2.507812 -20.046875 C 2.710938 -19.84375 3 -19.800781 3.285156 -19.925781 C 3.574219 -20.046875 3.820312 -20.253906 3.984375 -20.539062 C 4.109375 -20.828125 4.109375 -21.074219 3.902344 -21.320312 C 3.285156 -21.9375 2.589844 -22.019531 1.808594 -21.609375 C 1.027344 -21.199219 0.371094 -20.539062 -0.164062 -19.597656 C -0.738281 -18.652344 -1.027344 -17.664062 -1.027344 -16.679688 C -0.945312 -15.527344 -0.371094 -14.953125 0.699219 -14.953125 C 1.726562 -14.953125 2.835938 -15.773438 4.027344 -17.378906 C 4.148438 -16.515625 4.476562 -15.898438 5.011719 -15.527344 C 5.546875 -15.160156 6.246094 -14.953125 7.148438 -14.953125 C 9.324219 -14.953125 11.996094 -16.390625 15.117188 -19.226562 C 15.40625 -19.515625 15.527344 -19.800781 15.488281 -20.089844 C 15.40625 -20.335938 15.242188 -20.5 14.996094 -20.582031 C 14.707031 -20.664062 14.417969 -20.582031 14.132812 -20.292969 Z M 14.132812 -20.292969" transform="translate(189.856 256.75)"/></g></g></g><g fill="#3E5650"><g><g><path d="M 15.445312 -17.582031 C 16.226562 -20.789062 17.335938 -25.140625 18.773438 -30.605469 C 20.210938 -36.070312 21.566406 -40.382812 22.882812 -43.546875 C 28.386719 -46.300781 32.414062 -47.65625 34.917969 -47.574219 C 37.425781 -47.492188 38.65625 -46.421875 38.699219 -44.367188 C 38.699219 -42.3125 37.710938 -39.726562 35.699219 -36.5625 C 33.6875 -33.398438 30.976562 -30.152344 27.484375 -26.785156 C 23.992188 -23.375 19.964844 -20.335938 15.445312 -17.582031 Z M 24.648438 -46.050781 C 24.691406 -46.464844 24.527344 -46.710938 24.195312 -46.792969 C 23.828125 -46.832031 23.417969 -46.710938 22.964844 -46.382812 C 22.59375 -46.09375 22.183594 -45.476562 21.730469 -44.613281 C 19.636719 -43.546875 17.050781 -42.066406 13.96875 -40.136719 C 10.886719 -38.207031 8.011719 -36.152344 5.421875 -33.933594 C 2.792969 -31.675781 1.148438 -29.539062 0.492188 -27.523438 C 0.164062 -26.292969 0.371094 -25.304688 1.148438 -24.609375 C 1.4375 -24.402344 1.726562 -24.402344 2.011719 -24.527344 C 2.300781 -24.648438 2.507812 -24.894531 2.628906 -25.183594 C 2.753906 -25.46875 2.710938 -25.71875 2.507812 -25.964844 C 2.09375 -26.332031 1.972656 -26.828125 2.175781 -27.523438 C 2.710938 -29.207031 4.191406 -31.015625 6.53125 -32.988281 C 8.875 -34.917969 11.378906 -36.769531 14.132812 -38.492188 C 16.84375 -40.179688 19.0625 -41.492188 20.746094 -42.4375 C 19.019531 -38.125 16.636719 -29.457031 13.558594 -16.472656 C 12.117188 -15.691406 10.722656 -14.996094 9.367188 -14.378906 C 8.011719 -13.761719 7.105469 -13.351562 6.65625 -13.226562 C 6.695312 -13.433594 6.902344 -13.84375 7.355469 -14.460938 C 7.804688 -15.035156 8.585938 -15.691406 9.695312 -16.472656 C 10.023438 -16.71875 10.1875 -17.007812 10.1875 -17.296875 C 10.1875 -17.582031 10.066406 -17.789062 9.859375 -17.910156 C 9.652344 -18.035156 9.367188 -17.992188 8.996094 -17.789062 C 7.4375 -16.71875 6.328125 -15.691406 5.710938 -14.707031 C 5.054688 -13.679688 4.804688 -12.898438 5.011719 -12.285156 C 5.300781 -11.585938 5.957031 -11.378906 7.023438 -11.75 C 9.121094 -12.570312 11.132812 -13.515625 13.105469 -14.582031 C 11.75 -8.875 10.925781 -5.339844 10.640625 -3.945312 C 10.515625 -3.367188 10.394531 -2.917969 10.351562 -2.589844 C 10.269531 -2.21875 10.1875 -1.929688 10.105469 -1.683594 C 10.023438 -1.316406 10.105469 -1.066406 10.351562 -0.945312 C 10.558594 -0.820312 10.84375 -0.820312 11.132812 -0.945312 C 11.421875 -1.066406 11.667969 -1.316406 11.789062 -1.683594 L 11.953125 -2.464844 C 12.160156 -3.410156 12.488281 -4.804688 12.898438 -6.574219 C 13.308594 -8.339844 13.722656 -10.066406 14.132812 -11.832031 C 14.5 -13.558594 14.789062 -14.832031 14.996094 -15.609375 C 20.210938 -18.691406 24.730469 -22.0625 28.550781 -25.757812 C 32.371094 -29.414062 35.289062 -32.988281 37.382812 -36.480469 C 39.480469 -39.929688 40.507812 -42.847656 40.464844 -45.191406 C 40.425781 -47.53125 39.109375 -48.886719 36.5625 -49.257812 C 34.015625 -49.625 30.03125 -48.558594 24.648438 -46.050781 Z M 24.648438 -46.050781" transform="translate(225.102 256.75)"/></g></g></g><g fill="#3E5650"><g><g><path d="M 14.132812 -20.292969 C 11.257812 -17.707031 8.957031 -16.472656 7.230469 -16.636719 C 6.246094 -16.761719 5.75 -17.253906 5.75 -18.074219 C 5.710938 -18.855469 5.875 -19.800781 6.203125 -20.828125 L 6.285156 -21.074219 C 6.328125 -21.445312 6.285156 -21.691406 6.078125 -21.8125 C 5.875 -21.9375 5.628906 -21.9375 5.339844 -21.855469 C 5.054688 -21.773438 4.847656 -21.566406 4.683594 -21.238281 C 3.984375 -19.964844 3.367188 -18.980469 2.875 -18.324219 C 2.382812 -17.625 2.011719 -17.171875 1.726562 -16.964844 C 1.4375 -16.71875 1.234375 -16.597656 1.148438 -16.597656 C 1.109375 -16.597656 1.027344 -16.597656 0.984375 -16.636719 C 0.902344 -16.636719 0.820312 -16.679688 0.78125 -16.761719 C 0.738281 -16.84375 0.699219 -16.964844 0.699219 -17.171875 C 0.699219 -17.582031 0.820312 -18.035156 1.066406 -18.570312 C 1.273438 -19.0625 1.519531 -19.472656 1.808594 -19.800781 C 2.09375 -20.128906 2.300781 -20.210938 2.507812 -20.046875 C 2.710938 -19.84375 3 -19.800781 3.285156 -19.925781 C 3.574219 -20.046875 3.820312 -20.253906 3.984375 -20.539062 C 4.109375 -20.828125 4.109375 -21.074219 3.902344 -21.320312 C 3.285156 -21.9375 2.589844 -22.019531 1.808594 -21.609375 C 1.027344 -21.199219 0.371094 -20.539062 -0.164062 -19.597656 C -0.738281 -18.652344 -1.027344 -17.664062 -1.027344 -16.679688 C -0.945312 -15.527344 -0.371094 -14.953125 0.699219 -14.953125 C 1.726562 -14.953125 2.835938 -15.773438 4.027344 -17.378906 C 4.148438 -16.515625 4.476562 -15.898438 5.011719 -15.527344 C 5.546875 -15.160156 6.246094 -14.953125 7.148438 -14.953125 C 9.324219 -14.953125 11.996094 -16.390625 15.117188 -19.226562 C 15.40625 -19.515625 15.527344 -19.800781 15.488281 -20.089844 C 15.40625 -20.335938 15.242188 -20.5 14.996094 -20.582031 C 14.707031 -20.664062 14.417969 -20.582031 14.132812 -20.292969 Z M 14.132812 -20.292969" transform="translate(252.419 256.75)"/></g></g></g><g fill="#3E5650"><g><g><path d="M 16.472656 -20.539062 C 15.117188 -19.265625 13.925781 -18.324219 12.859375 -17.625 C 11.789062 -16.925781 10.761719 -16.597656 9.777344 -16.597656 C 8.667969 -16.597656 8.132812 -17.296875 8.132812 -18.691406 C 8.09375 -20.046875 8.378906 -21.855469 8.996094 -24.074219 C 9.570312 -26.292969 10.269531 -28.714844 11.09375 -31.34375 C 11.871094 -33.769531 12.570312 -36.152344 13.226562 -38.535156 C 13.351562 -38.988281 13.269531 -39.316406 13.0625 -39.480469 C 12.859375 -39.644531 12.570312 -39.644531 12.285156 -39.480469 C 11.953125 -39.316406 11.707031 -38.988281 11.585938 -38.535156 C 11.296875 -37.589844 10.804688 -35.945312 10.023438 -33.644531 C 9.242188 -31.304688 8.296875 -28.839844 7.269531 -26.25 C 6.246094 -23.621094 5.175781 -21.363281 4.066406 -19.472656 C 2.957031 -17.542969 2.011719 -16.597656 1.191406 -16.597656 C 1.027344 -16.597656 0.945312 -16.679688 0.902344 -16.882812 C 0.863281 -17.089844 0.820312 -17.253906 0.820312 -17.460938 C 0.863281 -17.707031 0.902344 -18.035156 1.027344 -18.40625 C 1.148438 -18.773438 1.273438 -19.144531 1.4375 -19.515625 C 1.5625 -19.84375 1.726562 -20.089844 1.929688 -20.210938 C 2.09375 -20.335938 2.257812 -20.292969 2.382812 -20.089844 C 2.589844 -19.800781 2.835938 -19.71875 3.121094 -19.800781 C 3.410156 -19.882812 3.65625 -20.046875 3.863281 -20.335938 C 4.066406 -20.582031 4.066406 -20.871094 3.945312 -21.15625 C 3.410156 -21.980469 2.792969 -22.265625 2.054688 -22.019531 C 1.273438 -21.773438 0.617188 -21.199219 0.0429688 -20.253906 C -0.535156 -19.308594 -0.863281 -18.199219 -0.902344 -17.007812 C -0.863281 -15.652344 -0.328125 -14.953125 0.738281 -14.953125 C 1.765625 -14.953125 2.753906 -15.527344 3.78125 -16.679688 C 4.765625 -17.828125 5.710938 -19.308594 6.65625 -21.15625 C 6.449219 -20.128906 6.367188 -19.144531 6.410156 -18.199219 C 6.449219 -17.253906 6.65625 -16.472656 7.105469 -15.859375 C 7.558594 -15.242188 8.296875 -14.953125 9.324219 -14.953125 C 10.804688 -14.953125 12.242188 -15.40625 13.597656 -16.351562 C 14.953125 -17.253906 16.269531 -18.28125 17.5 -19.472656 C 17.789062 -19.761719 17.871094 -20.046875 17.828125 -20.335938 C 17.789062 -20.582031 17.625 -20.746094 17.335938 -20.828125 C 17.050781 -20.910156 16.761719 -20.828125 16.472656 -20.539062 Z M 16.472656 -20.539062" transform="translate(266.55 256.75)"/></g></g></g><g fill="#3E5650"><g><g><path d="M 13.476562 -20.582031 C 12.367188 -19.964844 11.257812 -19.515625 10.105469 -19.308594 C 8.914062 -19.0625 8.050781 -18.980469 7.476562 -19.101562 C 7.148438 -19.183594 6.902344 -19.347656 6.777344 -19.636719 C 6.65625 -19.925781 6.53125 -20.210938 6.449219 -20.539062 C 6.367188 -20.992188 6.246094 -21.363281 6.039062 -21.691406 C 5.832031 -22.019531 5.421875 -22.183594 4.804688 -22.183594 C 4.066406 -22.183594 3.410156 -21.894531 2.875 -21.320312 C 2.339844 -20.707031 1.847656 -20.007812 1.4375 -19.226562 C 1.5625 -19.761719 1.726562 -20.335938 1.929688 -21.035156 C 1.972656 -21.402344 1.890625 -21.648438 1.683594 -21.773438 C 1.4375 -21.894531 1.191406 -21.894531 0.902344 -21.773438 C 0.617188 -21.648438 0.371094 -21.402344 0.246094 -21.035156 C -0.371094 -18.855469 -0.699219 -17.253906 -0.738281 -16.308594 C -0.820312 -15.324219 -0.535156 -14.832031 0.164062 -14.832031 C 0.617188 -14.832031 1.027344 -15.035156 1.316406 -15.488281 C 1.601562 -15.898438 1.890625 -16.472656 2.175781 -17.214844 C 2.339844 -17.582031 2.546875 -17.992188 2.835938 -18.527344 C 3.082031 -19.019531 3.328125 -19.472656 3.613281 -19.925781 C 3.902344 -20.335938 4.148438 -20.539062 4.355469 -20.539062 C 4.476562 -20.539062 4.558594 -20.457031 4.601562 -20.335938 C 4.640625 -20.210938 4.722656 -20.007812 4.765625 -19.800781 C 4.890625 -19.347656 5.054688 -18.898438 5.339844 -18.445312 C 5.585938 -17.992188 6.039062 -17.664062 6.695312 -17.5 C 7.476562 -17.335938 8.585938 -17.417969 10.023438 -17.707031 C 11.421875 -17.992188 12.777344 -18.488281 14.089844 -19.226562 C 14.460938 -19.429688 14.625 -19.71875 14.667969 -20.007812 C 14.667969 -20.292969 14.542969 -20.5 14.335938 -20.664062 C 14.132812 -20.789062 13.84375 -20.789062 13.476562 -20.582031 Z M 13.476562 -20.582031" transform="translate(283.064 256.75)"/></g></g></g><g fill="#3E5650"><g><g><path d="M 14.132812 -20.292969 C 11.257812 -17.707031 8.957031 -16.472656 7.230469 -16.636719 C 6.246094 -16.761719 5.75 -17.253906 5.75 -18.074219 C 5.710938 -18.855469 5.875 -19.800781 6.203125 -20.828125 L 6.285156 -21.074219 C 6.328125 -21.445312 6.285156 -21.691406 6.078125 -21.8125 C 5.875 -21.9375 5.628906 -21.9375 5.339844 -21.855469 C 5.054688 -21.773438 4.847656 -21.566406 4.683594 -21.238281 C 3.984375 -19.964844 3.367188 -18.980469 2.875 -18.324219 C 2.382812 -17.625 2.011719 -17.171875 1.726562 -16.964844 C 1.4375 -16.71875 1.234375 -16.597656 1.148438 -16.597656 C 1.109375 -16.597656 1.027344 -16.597656 0.984375 -16.636719 C 0.902344 -16.636719 0.820312 -16.679688 0.78125 -16.761719 C 0.738281 -16.84375 0.699219 -16.964844 0.699219 -17.171875 C 0.699219 -17.582031 0.820312 -18.035156 1.066406 -18.570312 C 1.273438 -19.0625 1.519531 -19.472656 1.808594 -19.800781 C 2.09375 -20.128906 2.300781 -20.210938 2.507812 -20.046875 C 2.710938 -19.84375 3 -19.800781 3.285156 -19.925781 C 3.574219 -20.046875 3.820312 -20.253906 3.984375 -20.539062 C 4.109375 -20.828125 4.109375 -21.074219 3.902344 -21.320312 C 3.285156 -21.9375 2.589844 -22.019531 1.808594 -21.609375 C 1.027344 -21.199219 0.371094 -20.539062 -0.164062 -19.597656 C -0.738281 -18.652344 -1.027344 -17.664062 -1.027344 -16.679688 C -0.945312 -15.527344 -0.371094 -14.953125 0.699219 -14.953125 C 1.726562 -14.953125 2.835938 -15.773438 4.027344 -17.378906 C 4.148438 -16.515625 4.476562 -15.898438 5.011719 -15.527344 C 5.546875 -15.160156 6.246094 -14.953125 7.148438 -14.953125 C 9.324219 -14.953125 11.996094 -16.390625 15.117188 -19.226562 C 15.40625 -19.515625 15.527344 -19.800781 15.488281 -20.089844 C 15.40625 -20.335938 15.242188 -20.5 14.996094 -20.582031 C 14.707031 -20.664062 14.417969 -20.582031 14.132812 -20.292969 Z M 6.367188 -25.636719 C 6.121094 -25.386719 5.914062 -25.265625 5.667969 -25.304688 C 5.464844 -25.304688 5.175781 -25.386719 4.804688 -25.59375 C 4.148438 -25.882812 3.574219 -26.046875 3.082031 -26.003906 C 2.589844 -25.964844 2.054688 -25.675781 1.398438 -25.101562 C 1.234375 -24.894531 1.148438 -24.730469 1.148438 -24.527344 C 1.191406 -24.320312 1.273438 -24.195312 1.4375 -24.15625 C 1.601562 -24.074219 1.808594 -24.113281 2.054688 -24.277344 C 2.136719 -24.320312 2.175781 -24.363281 2.257812 -24.402344 C 2.421875 -24.527344 2.546875 -24.609375 2.671875 -24.648438 C 2.792969 -24.691406 2.957031 -24.648438 3.121094 -24.609375 C 3.285156 -24.566406 3.53125 -24.445312 3.863281 -24.238281 C 4.476562 -23.910156 5.054688 -23.746094 5.546875 -23.746094 C 6.078125 -23.746094 6.695312 -24.03125 7.355469 -24.566406 C 7.601562 -24.773438 7.683594 -24.976562 7.601562 -25.265625 C 7.558594 -25.511719 7.4375 -25.675781 7.1875 -25.800781 C 6.984375 -25.921875 6.695312 -25.839844 6.367188 -25.636719 Z M 6.367188 -25.636719" transform="translate(296.414 256.75)"/></g></g></g><g fill="#3E5650"><g><g><path d="M 4.601562 -18.652344 C 4.191406 -18.816406 3.945312 -19.019531 3.820312 -19.308594 C 3.699219 -19.597656 3.65625 -19.84375 3.78125 -20.089844 C 3.902344 -20.375 4.066406 -20.539062 4.273438 -20.539062 C 4.476562 -20.539062 4.601562 -20.375 4.722656 -20.089844 C 4.804688 -19.761719 4.765625 -19.265625 4.601562 -18.652344 Z M 12.777344 -20.375 C 10.640625 -18.898438 8.421875 -18.238281 6.164062 -18.363281 C 6.613281 -19.882812 6.613281 -20.910156 6.078125 -21.527344 C 5.546875 -22.144531 4.847656 -22.308594 4.027344 -22.101562 C 3.203125 -21.894531 2.589844 -21.28125 2.175781 -20.253906 C 1.929688 -19.636719 1.929688 -19.019531 2.136719 -18.445312 C 2.339844 -17.828125 2.875 -17.378906 3.699219 -17.089844 C 3.328125 -16.71875 2.875 -16.515625 2.382812 -16.515625 C 1.601562 -16.515625 1.234375 -16.882812 1.191406 -17.582031 C 1.148438 -18.28125 1.316406 -19.0625 1.683594 -19.84375 C 1.808594 -20.210938 1.808594 -20.5 1.601562 -20.664062 C 1.398438 -20.828125 1.148438 -20.871094 0.863281 -20.828125 C 0.574219 -20.746094 0.328125 -20.539062 0.125 -20.171875 C -0.574219 -18.488281 -0.738281 -17.171875 -0.289062 -16.226562 C 0.164062 -15.28125 0.902344 -14.832031 1.929688 -14.832031 C 3.164062 -14.832031 4.3125 -15.488281 5.339844 -16.761719 C 6.574219 -16.636719 7.929688 -16.761719 9.449219 -17.132812 C 10.925781 -17.5 12.324219 -18.199219 13.640625 -19.183594 C 13.925781 -19.472656 14.089844 -19.71875 14.050781 -20.007812 C 14.007812 -20.292969 13.886719 -20.457031 13.640625 -20.582031 C 13.394531 -20.707031 13.105469 -20.621094 12.777344 -20.375 Z M 12.777344 -20.375" transform="translate(310.545 256.75)"/></g></g></g><g clip-path="url(#b)"><g mask="url(#c)"><g><g clip-path="url(#d)" transform="translate(145 84)"><g clip-path="url(#e)"><path fill="#3E5650" d="M 1.082031 24.253906 L 83.585938 24.253906 C 75.351562 10.019531 59.964844 0.441406 42.335938 0.441406 C 24.707031 0.441406 9.316406 10.019531 1.082031 24.253906 Z M 1.082031 24.253906"/></g></g></g></g></g><g clip-path="url(#f)"><g mask="url(#g)"><g><g clip-path="url(#h)" transform="translate(139 108)"><g clip-path="url(#i)"><path fill="#3E5650" d="M 0.710938 24.066406 L 95.960938 24.066406 C 95.960938 15.390625 93.640625 7.257812 89.589844 0.253906 L 7.082031 0.253906 C 3.03125 7.257812 0.710938 15.390625 0.710938 24.066406 Z M 0.710938 24.066406"/></g></g></g></g></g><g clip-path="url(#j)"><g mask="url(#k)"><g><g clip-path="url(#l)" transform="translate(139 131)"><g clip-path="url(#m)"><path fill="#3E5650" d="M 7.082031 24.878906 L 89.585938 24.878906 C 93.640625 17.871094 95.960938 9.742188 95.960938 1.066406 L 0.710938 1.066406 C 0.710938 9.742188 3.03125 17.871094 7.082031 24.878906 Z M 7.082031 24.878906"/></g></g></g></g></g><g clip-path="url(#n)"><g mask="url(#o)"><g><g clip-path="url(#p)" transform="translate(145 155)"><g clip-path="url(#q)"><path fill="#3E5650" d="M 83.589844 0.878906 L 1.082031 0.878906 C 9.316406 15.113281 24.707031 24.691406 42.335938 24.691406 C 59.964844 24.691406 75.351562 15.113281 83.589844 0.878906 Z M 83.589844 0.878906"/></g></g></g></g></g><g clip-path="url(#r)"><g clip-path="url(#s)"><g clip-path="url(#t)"><path fill="#3E5650" d="M 171.101562 188.855469 C 169.585938 188.199219 167.996094 187.703125 166.453125 187.113281 C 164.433594 186.339844 162.421875 185.542969 160.410156 184.757812 C 160.339844 184.714844 160.265625 184.675781 160.195312 184.636719 C 159.417969 184.199219 158.664062 183.71875 157.941406 183.191406 C 156.425781 182.0625 155.039062 180.792969 153.789062 179.375 C 153.429688 178.949219 153.078125 178.523438 152.722656 178.09375 C 149.773438 174.488281 147.070312 170.742188 145.601562 166.242188 C 145.363281 165.515625 145.125 164.796875 145.125 164.023438 C 145.117188 163.34375 145.605469 162.980469 146.261719 163.101562 C 147.03125 163.238281 147.683594 163.652344 148.335938 164.0625 C 150.496094 165.425781 152.472656 167.007812 154.269531 168.816406 C 157.746094 172.269531 161.441406 175.472656 165.351562 178.429688 C 165.847656 178.808594 166.285156 179.300781 166.953125 179.40625 C 167.054688 179.105469 166.890625 178.910156 166.730469 178.71875 C 166.171875 178.027344 165.609375 177.339844 165.042969 176.652344 C 162.769531 173.894531 160.777344 170.941406 159.347656 167.667969 C 157.574219 163.589844 155.011719 160.078125 151.671875 157.128906 C 150.15625 155.761719 148.804688 154.25 147.609375 152.597656 C 146.011719 150.425781 144.960938 147.96875 144.132812 145.425781 C 143.910156 144.734375 143.703125 143.886719 144.433594 143.296875 C 145.085938 142.773438 145.789062 143.101562 146.414062 143.390625 C 149.296875 144.734375 152.230469 146.007812 154.546875 148.292969 C 154.671875 148.417969 154.886719 148.453125 155.054688 148.539062 C 156.085938 148.363281 157.015625 147.921875 157.96875 147.566406 C 158.628906 147.324219 159.269531 147.050781 159.980469 146.964844 C 164.339844 146.476562 168.5 147.046875 172.449219 149 C 174.347656 149.941406 175.984375 151.25 177.625 152.558594 C 179.523438 154.019531 180.988281 155.832031 182.015625 157.996094 C 182.136719 158.257812 182.148438 158.621094 182.542969 158.71875 C 182.890625 158.574219 182.867188 158.21875 182.941406 157.925781 C 183.441406 155.953125 183.878906 153.960938 184.445312 152.007812 C 185.082031 149.816406 185.125 147.621094 184.578125 145.410156 C 183.761719 142.007812 182.640625 138.707031 181.214844 135.511719 C 180.277344 133.425781 179.222656 131.398438 178.101562 129.402344 C 176.160156 125.945312 173.992188 122.6875 170.816406 120.210938 C 170.367188 119.851562 169.960938 119.449219 169.597656 119.003906 C 168.632812 117.859375 169.019531 116.792969 170.480469 116.53125 C 170.734375 116.503906 170.988281 116.488281 171.242188 116.488281 C 172.640625 116.398438 173.878906 116.882812 175.046875 117.570312 C 177.390625 118.945312 179.320312 120.757812 180.835938 123.003906 C 182.082031 124.777344 183.164062 126.640625 184.089844 128.597656 C 184.21875 128.882812 184.277344 129.390625 184.933594 129.199219 C 185.023438 128.484375 185.109375 127.734375 185.203125 126.984375 C 185.433594 124.949219 185.941406 122.984375 186.730469 121.089844 C 187.003906 120.445312 187.359375 119.984375 188.132812 120.058594 C 188.605469 120.339844 188.871094 120.75 188.929688 121.296875 C 189.113281 122.296875 189.359375 123.289062 189.445312 124.296875 C 189.6875 126.832031 189.742188 129.367188 189.609375 131.910156 C 189.578125 132.433594 189.402344 133 189.8125 133.828125 C 189.972656 133.261719 190.046875 132.957031 190.148438 132.660156 C 190.90625 130.429688 191.691406 128.207031 192.75 126.09375 C 193.035156 125.523438 193.261719 124.925781 193.546875 124.355469 C 193.859375 123.773438 193.96875 123.160156 193.878906 122.507812 C 193.683594 121.253906 193.445312 120 192.789062 118.875 C 191.332031 116.394531 189.648438 114.105469 187.378906 112.285156 C 186.386719 111.492188 185.441406 110.640625 184.472656 109.816406 C 183.363281 108.851562 182.414062 107.746094 181.625 106.503906 C 181.3125 106.027344 181.058594 105.515625 180.867188 104.976562 C 180.59375 104.207031 181.136719 103.578125 181.964844 103.640625 C 182.09375 103.652344 182.21875 103.675781 182.34375 103.710938 C 185.691406 104.480469 188.566406 106.140625 190.632812 108.828125 C 192.578125 111.34375 194.160156 114.117188 194.777344 117.328125 C 194.84375 117.679688 194.859375 118.082031 195.230469 118.308594 C 195.492188 118.050781 195.46875 117.714844 195.425781 117.417969 C 194.96875 114.46875 194.527344 111.515625 194.007812 108.582031 C 193.5625 106.269531 193.324219 103.933594 193.289062 101.578125 C 193.28125 100.109375 193.445312 98.660156 193.78125 97.230469 C 193.933594 96.601562 194.160156 96.015625 194.667969 95.578125 C 194.863281 95.394531 195.097656 95.308594 195.363281 95.320312 C 195.632812 95.332031 195.855469 95.433594 196.039062 95.628906 C 196.238281 95.875 196.414062 96.140625 196.5625 96.421875 C 197.101562 97.449219 197.335938 98.5625 197.492188 99.703125 C 197.753906 101.589844 198.023438 103.476562 198.304688 105.355469 C 198.34375 105.621094 198.207031 106 198.773438 106.097656 C 199.339844 105.074219 199.753906 103.929688 200.480469 102.949219 C 202.105469 100.742188 203.730469 98.535156 205.347656 96.324219 C 205.660156 95.894531 206.007812 95.484375 206.597656 95.675781 C 207.191406 95.863281 207.289062 96.386719 207.34375 96.902344 C 207.378906 97.28125 207.382812 97.664062 207.355469 98.042969 C 207.273438 99.257812 207.011719 100.429688 206.570312 101.566406 C 205.542969 104.386719 204.296875 107.105469 202.828125 109.726562 C 202.144531 110.949219 201.460938 112.175781 200.796875 113.410156 C 200.65625 113.667969 200.421875 113.941406 200.710938 114.3125 C 201.398438 114.199219 201.964844 113.777344 202.558594 113.429688 C 203.9375 112.609375 205.40625 111.988281 206.953125 111.5625 C 207.632812 111.382812 208.300781 111.15625 208.976562 110.9375 C 211.003906 110.304688 213.078125 109.988281 215.203125 109.988281 C 215.640625 109.984375 216.078125 110.023438 216.507812 110.113281 C 216.828125 110.164062 217.035156 110.34375 217.132812 110.648438 C 217.230469 110.957031 217.164062 111.222656 216.929688 111.449219 C 216.496094 111.917969 216.003906 112.316406 215.457031 112.648438 C 212.179688 114.550781 208.75 116.089844 205.023438 116.882812 C 203.714844 117.183594 202.445312 117.617188 201.222656 118.171875 C 200.003906 118.683594 198.902344 119.386719 197.925781 120.277344 C 196.945312 121.164062 196.148438 122.191406 195.523438 123.355469 C 194.285156 125.660156 193.214844 128.039062 192.320312 130.492188 C 191.078125 133.902344 189.9375 137.351562 188.773438 140.792969 C 188.664062 141.117188 188.375 141.460938 188.679688 141.839844 C 189.089844 141.898438 189.210938 141.550781 189.371094 141.304688 C 190.761719 139.070312 192.582031 137.1875 194.394531 135.308594 C 196.316406 133.328125 198.488281 131.667969 200.90625 130.328125 C 203.125 129.074219 205.335938 127.789062 207.527344 126.472656 C 208.730469 125.75 209.882812 124.945312 211.070312 124.199219 C 211.457031 123.957031 211.890625 123.773438 212.3125 124.144531 C 212.699219 124.480469 212.675781 124.925781 212.527344 125.371094 C 212.4375 125.675781 212.324219 125.972656 212.191406 126.261719 C 211.472656 127.761719 210.609375 129.175781 209.601562 130.5 C 205.414062 135.816406 200.414062 140.214844 194.601562 143.699219 C 194.164062 143.960938 193.710938 144.207031 193.300781 144.507812 C 192.890625 144.804688 192.273438 144.78125 192.03125 145.519531 C 194.03125 144.636719 196.046875 144.332031 198.066406 144.027344 C 198.507812 143.960938 198.9375 143.84375 199.355469 143.679688 C 202.273438 142.5 205.222656 142.671875 208.191406 143.40625 C 209.265625 143.636719 210.25 144.070312 211.148438 144.703125 C 212.648438 145.824219 213.328125 147.363281 213.023438 149.203125 C 212.808594 150.5 211.953125 151.289062 210.582031 150.167969 C 210.433594 150.046875 210.277344 149.9375 210.140625 149.804688 C 208.585938 148.335938 206.675781 147.484375 204.769531 146.570312 C 202.550781 145.511719 200.691406 146.160156 198.902344 147.496094 C 198.453125 147.855469 198.03125 148.242188 197.636719 148.65625 C 196.949219 149.324219 196.1875 149.890625 195.347656 150.359375 C 193.824219 151.210938 192.199219 151.742188 190.464844 151.953125 C 189.511719 152.054688 188.570312 152.207031 187.632812 152.410156 C 186.320312 152.722656 185.355469 153.394531 185.050781 154.867188 C 184.484375 157.609375 183.730469 160.308594 183.210938 163.054688 C 182.832031 165.050781 182.703125 167.089844 182.476562 169.109375 C 182.453125 169.347656 182.359375 169.632812 182.71875 169.773438 C 182.863281 169.667969 182.996094 169.550781 183.121094 169.421875 C 185.910156 166.0625 189.285156 163.542969 193.472656 162.152344 C 194.261719 161.890625 195.015625 161.550781 195.738281 161.132812 C 197.234375 160.28125 198.6875 159.351562 200.160156 158.453125 C 201.851562 157.429688 203.539062 156.394531 205.375 155.617188 C 208.28125 154.386719 211.292969 154.128906 214.386719 154.527344 C 214.972656 154.566406 215.507812 154.75 215.996094 155.070312 C 216.519531 155.453125 216.621094 156.089844 216.175781 156.546875 C 215.785156 156.976562 215.324219 157.316406 214.796875 157.566406 C 212.28125 158.660156 209.890625 160.050781 207.320312 161.007812 C 204.605469 162.011719 202.078125 163.386719 199.914062 165.328125 C 196.886719 168.042969 193.242188 169.535156 189.453125 170.742188 C 187.867188 171.246094 186.292969 171.761719 184.753906 172.394531 C 183.742188 172.808594 182.78125 173.289062 182.03125 174.195312 C 181.976562 174.648438 181.898438 175.15625 181.859375 175.660156 C 181.59375 179.078125 181.328125 182.5 181.0625 185.921875 C 181.035156 186.300781 181.074219 186.6875 180.828125 187.011719 L 180.863281 187 L 180.867188 186.960938 C 181.253906 186.996094 181.417969 186.734375 181.546875 186.429688 C 182.054688 185.175781 182.867188 184.097656 183.632812 183.007812 C 185.269531 180.675781 188.523438 178.5 192.324219 179.914062 C 192.617188 180.019531 192.949219 180.058594 193.242188 180.179688 C 194.140625 180.539062 195.078125 180.679688 196.046875 180.601562 C 198.585938 180.464844 201 180.945312 203.28125 182.050781 C 207.496094 184.050781 209.84375 187.53125 211.011719 191.910156 C 211.152344 192.402344 211.234375 192.902344 211.257812 193.410156 C 211.292969 194.363281 210.5625 194.832031 209.734375 194.394531 C 209.449219 194.253906 209.1875 194.074219 208.949219 193.863281 C 207.050781 192.082031 205.121094 190.332031 203.289062 188.480469 C 201.671875 186.851562 199.925781 185.378906 198.050781 184.058594 C 197.015625 183.328125 195.945312 183.242188 194.777344 183.550781 C 193.773438 183.792969 192.839844 184.199219 191.976562 184.765625 C 189.824219 186.25 187.671875 187.738281 185.765625 189.550781 C 184.976562 190.304688 184.128906 190.992188 183.222656 191.601562 C 181.75 192.59375 180.964844 193.871094 180.792969 195.675781 C 180.539062 198.078125 179.792969 207.351562 179.640625 209.757812 C 179.253906 211.304688 177.941406 211.136719 177.769531 209.933594 C 177.464844 208.769531 179.25 202.386719 179.042969 198.785156 C 178.960938 197.289062 178.71875 195.773438 178.539062 194.257812 C 178.488281 193.84375 178.15625 193.617188 177.898438 193.339844 C 176.003906 191.285156 173.628906 189.945312 171.101562 188.855469 Z M 204.507812 103.226562 C 205 101.988281 205.410156 100.71875 205.816406 99.449219 C 205.910156 99.125 206.117188 98.738281 205.820312 98.394531 C 205.765625 98.347656 205.703125 98.332031 205.632812 98.34375 C 205.5625 98.359375 205.507812 98.398438 205.476562 98.460938 C 204.222656 100.136719 202.933594 101.792969 201.710938 103.5 C 200.617188 104.992188 199.910156 106.644531 199.582031 108.457031 C 200.472656 107.675781 200.703125 106.46875 201.925781 105.636719 C 201.792969 106.808594 201.222656 107.503906 200.914062 108.289062 C 200.5625 109.171875 200.144531 110.035156 199.78125 110.914062 C 199.445312 111.730469 199.046875 112.523438 198.914062 113.347656 C 199.085938 113.570312 199.15625 113.542969 199.253906 113.378906 C 201.167969 110.074219 203.09375 106.789062 204.507812 103.226562 Z M 210.671875 113.542969 C 211.589844 113.101562 212.507812 112.652344 213.414062 112.1875 C 213.679688 112.050781 213.980469 111.902344 214.046875 111.558594 C 210.152344 111.320312 202.753906 114.097656 200.320312 116.851562 C 203.675781 115.457031 207.375 115.125 210.671875 113.542969 Z M 196.894531 114.550781 C 196.980469 113.925781 197.003906 113.277344 197.183594 112.675781 C 197.75 110.785156 197.484375 108.921875 197.148438 107.042969 C 196.738281 104.804688 196.46875 102.539062 196.15625 100.28125 C 196.023438 99.347656 195.90625 98.410156 195.5625 97.546875 C 195.046875 97.503906 195.015625 97.84375 194.957031 98.132812 C 194.632812 99.824219 194.539062 101.523438 194.675781 103.238281 C 194.828125 105.257812 195.101562 107.261719 195.496094 109.25 C 195.742188 110.554688 195.910156 111.875 196.113281 113.1875 C 196.21875 113.859375 196.332031 114.53125 196.449219 115.234375 C 196.75 115.105469 196.898438 114.875 196.894531 114.550781 Z M 188.441406 108.445312 C 187.3125 107.421875 186.125 106.449219 184.683594 105.890625 C 184.058594 105.644531 183.460938 105.257812 182.671875 105.332031 C 182.894531 106.425781 183.601562 107.105469 184.25 107.773438 C 186.011719 109.585938 188.027344 111.109375 190.074219 112.617188 C 189.25 111.167969 187.90625 110.117188 186.792969 108.699219 C 188.03125 108.523438 188.453125 109.523438 189.285156 109.632812 C 189.332031 108.996094 188.789062 108.761719 188.441406 108.445312 Z M 206.097656 145.714844 C 207.070312 146.160156 208 146.699219 208.941406 147.210938 C 209.886719 147.722656 210.535156 148.585938 211.644531 149.105469 C 211.890625 147.625 211.425781 146.609375 210.410156 145.84375 C 209.945312 145.511719 209.441406 145.25 208.90625 145.050781 C 207.175781 144.34375 204.980469 144.089844 202.785156 144.40625 C 204.109375 144.917969 205.128906 145.269531 206.097656 145.714844 Z M 188.234375 132.199219 C 188.277344 131.863281 188.15625 131.605469 187.871094 131.425781 C 187.886719 131.925781 187.902344 132.421875 187.917969 132.972656 C 188.324219 132.796875 188.199219 132.445312 188.234375 132.195312 Z M 187.097656 132.585938 C 187.140625 132.210938 187.230469 131.847656 187.375 131.496094 C 187.445312 131.316406 187.65625 131.332031 187.835938 131.398438 C 188.050781 131.441406 188.195312 131.359375 188.269531 131.15625 C 188.34375 130.847656 188.382812 130.535156 188.378906 130.21875 C 188.351562 128.003906 188.324219 125.789062 188.066406 123.589844 C 188.015625 123.355469 187.941406 123.128906 187.847656 122.90625 C 187.328125 122.882812 187.328125 123.253906 187.257812 123.519531 C 186.402344 126.664062 186.222656 129.878906 186.164062 133.113281 C 186.144531 134.3125 186.207031 135.511719 186.226562 136.714844 C 186.214844 137.140625 186.34375 137.515625 186.613281 137.839844 C 186.777344 136.085938 186.921875 134.332031 187.097656 132.582031 Z M 186.421875 138.226562 L 186.53125 138.234375 C 186.558594 138.136719 186.578125 138.039062 186.597656 137.9375 C 186.457031 137.964844 186.332031 138.003906 186.417969 138.222656 Z M 191.328125 142 C 193.761719 139.75 196.347656 137.691406 199.089844 135.828125 C 200.34375 134.949219 201.5 133.953125 202.550781 132.839844 C 203.3125 132.074219 204.074219 131.308594 204.855469 130.554688 C 205.097656 130.347656 205.363281 130.179688 205.652344 130.046875 C 205.730469 130.015625 205.855469 130.082031 205.960938 130.101562 C 205.941406 130.234375 205.96875 130.386719 205.898438 130.46875 C 204.582031 132.015625 203.269531 133.574219 201.914062 135.09375 C 200.964844 136.128906 199.898438 137.035156 198.71875 137.800781 C 196.75 139.121094 194.964844 140.640625 193.1875 142.1875 C 192.910156 142.429688 192.675781 142.722656 192.273438 143.152344 C 198.097656 140.738281 208.484375 131.398438 210.195312 126.652344 C 209.476562 126.6875 209.089844 127.265625 208.566406 127.546875 C 206.175781 128.886719 203.828125 130.300781 201.441406 131.644531 C 199.550781 132.722656 197.8125 133.996094 196.21875 135.476562 C 194.484375 137.078125 192.996094 138.90625 191.476562 140.699219 C 191.113281 141.128906 190.757812 141.589844 190.652344 142.171875 C 190.941406 142.300781 191.144531 142.167969 191.328125 141.996094 Z M 195.316406 145.867188 C 193.917969 146.269531 192.558594 146.75 191.488281 147.734375 L 196.316406 146.082031 C 196.1875 145.945312 196.035156 145.855469 195.847656 145.816406 C 195.664062 145.777344 195.488281 145.792969 195.3125 145.863281 Z M 193.480469 149.761719 C 194.566406 149.246094 195.792969 148.835938 196.546875 147.417969 C 193.667969 148.550781 190.839844 149.066406 188.285156 150.433594 C 189.515625 150.796875 191.796875 150.5625 193.480469 149.761719 Z M 183.320312 137.128906 C 183.5 137.597656 183.703125 138.058594 183.894531 138.523438 L 184.191406 138.445312 C 183.730469 136.9375 183.324219 135.402344 182.789062 133.925781 C 182.277344 132.492188 181.628906 131.105469 181.050781 129.699219 C 180.472656 128.289062 179.574219 126.980469 178.945312 125.296875 C 180.128906 126.023438 180.253906 126.195312 181.296875 128.207031 C 181.824219 129.222656 182.386719 130.21875 182.882812 131.246094 C 183.402344 132.328125 183.859375 133.441406 184.355469 134.558594 C 184.800781 134.300781 184.550781 134 184.496094 133.753906 C 183.484375 129.246094 181.148438 125.421875 178.265625 121.898438 C 177.09375 120.464844 175.589844 119.375 173.945312 118.503906 C 172.980469 117.992188 171.972656 117.636719 170.878906 117.921875 C 170.609375 118.375 170.96875 118.550781 171.167969 118.742188 C 171.953125 119.484375 172.761719 120.199219 173.566406 120.929688 C 175.011719 122.277344 176.246094 123.800781 177.265625 125.496094 C 179.597656 129.203125 181.753906 133.011719 183.316406 137.125 Z M 186.683594 167.554688 C 187.21875 167.738281 187.367188 167.550781 187.421875 167.25 Z M 203.226562 161.253906 L 202.667969 161.40625 C 202.964844 161.617188 203.074219 161.375 203.222656 161.257812 Z M 199.8125 161.652344 C 201.308594 160.808594 202.707031 159.816406 204.199219 158.941406 C 205.402344 158.230469 206.65625 157.597656 207.894531 156.945312 C 208.136719 156.773438 208.382812 156.769531 208.628906 156.929688 C 208.753906 157.019531 208.742188 157.109375 208.59375 157.214844 C 208.179688 157.507812 207.78125 157.828125 207.367188 158.109375 C 206.203125 158.886719 205.035156 159.660156 203.859375 160.417969 C 203.546875 160.574219 203.40625 160.820312 203.433594 161.167969 C 204.894531 160.539062 206.339844 159.914062 207.773438 159.28125 C 208.929688 158.773438 210.117188 158.277344 211.265625 157.726562 C 212.230469 157.261719 213.164062 156.71875 214.101562 156.230469 C 213.988281 155.863281 213.722656 155.824219 213.46875 155.808594 C 210.363281 155.539062 207.40625 156 204.601562 157.480469 C 202.515625 158.582031 200.546875 159.875 198.535156 161.089844 C 196.835938 162.117188 195.105469 163.039062 193.207031 163.632812 C 191.167969 164.269531 189.421875 165.4375 187.753906 166.726562 C 187.644531 166.851562 187.566406 166.992188 187.519531 167.152344 C 191.75 165.601562 195.886719 163.863281 199.8125 161.652344 Z M 194.351562 167.296875 C 196.25 166.46875 197.851562 165.25 199.152344 163.640625 C 198.566406 163.882812 197.96875 164.082031 197.398438 164.363281 C 194.839844 165.667969 192.222656 166.835938 189.550781 167.894531 C 188.5 168.308594 187.53125 168.84375 186.75 169.769531 C 188.308594 169.785156 190.550781 169.027344 194.359375 167.3125 Z M 201.027344 184.476562 C 202.003906 185.191406 202.902344 186 203.714844 186.898438 C 205.238281 188.617188 207.054688 190.023438 208.6875 191.621094 C 208.855469 191.777344 209.042969 191.988281 209.335938 191.863281 C 208.828125 188.695312 206.515625 185.515625 203.402344 183.832031 C 203.582031 184.648438 204.222656 185.011719 204.585938 185.539062 C 204.984375 186.109375 205.449219 186.621094 205.574219 187.332031 C 205.167969 187.574219 204.964844 187.324219 204.765625 187.082031 C 203.542969 185.601562 202.105469 184.371094 200.453125 183.382812 C 200.25 183.261719 200.046875 183.097656 199.789062 183.171875 C 199.9375 183.855469 200.550781 184.128906 201.03125 184.488281 Z M 199.71875 183.105469 C 199.472656 182.601562 199.027344 182.390625 198.472656 182.289062 C 198.992188 182.921875 199.003906 182.9375 199.726562 183.121094 Z M 184.535156 188.636719 C 186.46875 186.871094 188.582031 185.347656 190.734375 183.863281 C 191.6875 183.203125 192.761719 182.800781 193.75 182.234375 C 193.570312 181.96875 193.347656 181.839844 193.078125 181.902344 C 192.703125 181.96875 192.339844 182.082031 191.988281 182.234375 C 188.941406 183.78125 186.339844 185.902344 184.058594 188.421875 C 183.949219 188.582031 183.863281 188.753906 183.800781 188.9375 C 184.207031 189.1875 184.363281 188.816406 184.539062 188.652344 Z M 186.699219 183.949219 C 187.953125 182.871094 189.390625 182.109375 190.984375 181.304688 C 190.707031 181.09375 190.398438 180.957031 190.054688 180.898438 C 189.710938 180.835938 189.375 180.863281 189.042969 180.96875 C 187.878906 181.324219 186.746094 181.742188 185.847656 182.628906 C 184.585938 183.90625 183.625 185.378906 182.953125 187.039062 C 184.433594 186.269531 185.480469 185.003906 186.703125 183.960938 Z M 172.964844 188.070312 C 172.96875 188.019531 172.988281 187.957031 172.96875 187.914062 C 172.949219 187.871094 172.882812 187.851562 172.835938 187.824219 C 172.835938 187.878906 172.832031 187.929688 172.828125 187.980469 Z M 166.390625 180.867188 C 161.699219 177.464844 157.296875 173.722656 153.1875 169.640625 C 151.703125 168.148438 150.085938 166.820312 148.335938 165.648438 C 147.917969 165.367188 147.472656 165.121094 147.074219 164.878906 C 146.601562 165.148438 146.832031 165.449219 146.917969 165.726562 C 148.039062 169.296875 150.027344 172.382812 152.296875 175.304688 C 153.386719 176.707031 154.535156 178.066406 155.707031 179.402344 C 157.539062 181.492188 159.757812 183.039062 162.355469 184.046875 C 165.191406 185.1875 168.105469 186.140625 170.929688 187.285156 C 171.246094 187.414062 171.558594 187.707031 172.0625 187.378906 C 171.660156 186.84375 171.070312 186.625 170.53125 186.351562 C 168.660156 185.390625 166.785156 184.453125 164.90625 183.496094 C 163.328125 182.671875 161.796875 181.761719 160.320312 180.765625 C 157.441406 178.855469 155.421875 176.179688 153.515625 173.398438 C 153.46875 173.277344 153.445312 173.15625 153.449219 173.03125 C 153.679688 172.773438 153.894531 172.910156 154.0625 173.085938 C 154.800781 173.871094 155.535156 174.664062 156.257812 175.46875 C 158.375 177.789062 160.8125 179.707031 163.570312 181.21875 C 166.125 182.648438 168.761719 183.929688 171.363281 185.269531 C 171.542969 185.335938 171.726562 185.378906 171.914062 185.40625 C 171.90625 184.753906 171.367188 184.550781 170.988281 184.269531 C 169.476562 183.113281 167.925781 182 166.390625 180.867188 Z M 179.8125 157.238281 C 179.859375 156.871094 179.746094 156.566406 179.472656 156.324219 C 175.542969 151.792969 170.789062 148.710938 164.644531 148.210938 C 162.554688 148.042969 160.449219 148.046875 158.421875 148.84375 C 156.464844 149.640625 154.449219 150.230469 152.371094 150.617188 C 152.144531 150.6875 151.929688 150.773438 151.722656 150.882812 C 151.910156 151.117188 151.960938 151.238281 152.058594 151.296875 C 155.332031 153.042969 158.71875 154.492188 162.429688 155.035156 C 163.371094 155.199219 164.320312 155.277344 165.28125 155.269531 C 167.769531 155.164062 170.085938 155.738281 172.226562 156.992188 C 174.460938 158.265625 176.878906 159.023438 179.375 159.554688 C 179.652344 159.148438 179.347656 158.957031 179.152344 158.757812 C 175.933594 155.398438 172.0625 153.25 167.4375 152.445312 C 164.792969 151.988281 162.152344 151.632812 159.460938 151.675781 C 158.992188 151.683594 158.425781 151.898438 158.050781 151.363281 C 158.320312 150.910156 158.820312 150.933594 159.234375 150.875 C 164.714844 150.066406 169.886719 151.03125 174.777344 153.554688 C 176.089844 154.230469 177.179688 155.210938 178.300781 156.148438 C 178.769531 156.539062 179.167969 157.042969 179.8125 157.238281 Z M 179.414062 188.316406 C 179.472656 188.140625 179.519531 187.960938 179.546875 187.777344 C 180.121094 179.488281 180.636719 171.1875 181.917969 163.007812 C 180.644531 161.695312 179.292969 160.84375 177.59375 160.476562 C 175.519531 160.042969 173.5625 159.292969 171.730469 158.234375 C 169.707031 157.019531 167.515625 156.472656 165.152344 156.601562 C 163.753906 156.683594 162.386719 156.328125 161.09375 156.230469 C 160.742188 156.566406 160.941406 156.773438 161.0625 156.980469 C 164.078125 162.203125 167.25 167.320312 170.933594 172.113281 C 173.488281 175.449219 175.757812 178.960938 177.34375 182.882812 C 178.046875 184.644531 178.738281 186.417969 179.414062 188.316406 Z M 176.921875 186.8125 C 176.953125 186.855469 177.023438 186.871094 177.121094 186.921875 C 177.359375 186.25 177.070312 185.664062 176.855469 185.082031 C 175.953125 182.699219 174.835938 180.421875 173.507812 178.25 C 172.007812 175.738281 170.253906 173.40625 168.5 171.070312 C 166.257812 168.070312 164.199219 164.941406 162.335938 161.691406 C 161.324219 159.933594 160.195312 158.242188 159.148438 156.503906 C 158.742188 155.828125 158.160156 155.375 157.398438 155.152344 C 155.46875 154.480469 153.601562 153.671875 151.796875 152.71875 C 151.285156 152.460938 150.808594 152.152344 150.363281 151.789062 C 149.402344 150.980469 149.660156 149.875 150.882812 149.492188 C 151.304688 149.359375 151.753906 149.304688 152.1875 149.199219 C 152.425781 149.140625 152.699219 149.128906 152.839844 148.835938 C 152.761719 148.1875 152.140625 147.988281 151.703125 147.671875 C 150.171875 146.570312 147.046875 145.054688 145.472656 144.625 C 145.433594 145.363281 145.679688 145.886719 145.878906 146.417969 C 147.28125 150.179688 149.484375 153.394531 152.492188 156.054688 C 154.800781 158.078125 156.769531 160.390625 158.398438 162.988281 C 158.816406 163.625 159.1875 164.289062 159.503906 164.980469 C 161.601562 169.882812 164.578125 174.191406 168.03125 178.203125 C 169.152344 179.5 170.210938 180.84375 171.226562 182.226562 C 171.675781 182.835938 172.082031 183.582031 173.164062 183.960938 C 171.894531 181.914062 170.703125 180.136719 169.410156 178.417969 C 166.855469 175.019531 164.4375 171.523438 162.234375 167.882812 C 161.929688 167.398438 161.660156 166.898438 161.421875 166.378906 C 160.195312 163.570312 158.613281 160.980469 156.675781 158.605469 C 156.027344 157.824219 155.445312 156.992188 154.839844 156.1875 C 154.652344 155.933594 154.476562 155.667969 154.550781 155.324219 C 154.667969 155.304688 154.839844 155.222656 154.894531 155.273438 C 156.792969 157.050781 158.746094 158.777344 160.136719 161.011719 C 160.832031 162.144531 161.574219 163.273438 162.097656 164.492188 C 163.34375 167.355469 165.128906 169.910156 166.882812 172.472656 C 170.183594 177.285156 173.566406 182.035156 176.921875 186.8125 Z M 176.921875 186.8125"/></g></g></g></svg>